<svg width="1584" height="396" viewBox="0 0 1584 396" fill="none" xmlns="http://www.w3.org/2000/svg">
<rect width="1584" height="396" fill="#F5F5F5"/>
<g id="Awesome banner" clip-path="url(#clip0_0_1)">
<rect width="1584" height="396" fill="url(#paint0_linear_0_1)"/>
<ellipse id="Ellipse 2" cx="323" cy="64" rx="285" ry="288" fill="url(#paint1_linear_0_1)" fill-opacity="0.1"/>
<g id="copyright">
<path d="M75.95 334.52L72.30 334.52L72.30 311.16L77.20 311.16L83.70 330.04Q83.60 329.02 83.50 327.62Q83.41 326.23 83.33 324.79Q83.25 323.35 83.25 322.23L83.25 311.16L86.90 311.16L86.90 334.52L82 334.52L75.57 315.64Q75.63 316.57 75.73 317.88Q75.82 319.19 75.89 320.57Q75.95 321.94 75.95 323.10L75.95 334.52M98.80 334.84Q96.46 334.84 94.67 333.96Q92.88 333.08 91.89 331.53Q90.90 329.98 90.90 327.93Q90.90 325.78 92.13 324.18Q93.36 322.58 95.34 322.17L95.34 322.10Q93.65 321.75 92.61 320.38Q91.57 319 91.57 317.11Q91.57 315.26 92.48 313.85Q93.39 312.44 95.02 311.64Q96.66 310.84 98.80 310.84Q100.94 310.84 102.59 311.64Q104.24 312.44 105.15 313.85Q106.06 315.26 106.06 317.11Q106.06 319 105.01 320.38Q103.95 321.75 102.26 322.10L102.26 322.17Q104.24 322.58 105.47 324.18Q106.70 325.78 106.70 327.93Q106.70 329.98 105.71 331.53Q104.72 333.08 102.93 333.96Q101.14 334.84 98.80 334.84M98.80 320.73Q100.30 320.73 101.23 319.82Q102.16 318.90 102.16 317.46Q102.16 315.99 101.23 315.08Q100.30 314.17 98.80 314.17Q97.30 314.17 96.37 315.08Q95.44 315.99 95.44 317.46Q95.44 318.90 96.37 319.82Q97.30 320.73 98.80 320.73M98.80 331.45Q100.56 331.45 101.68 330.42Q102.80 329.40 102.80 327.74Q102.80 326.04 101.68 325Q100.56 323.96 98.80 323.96Q97.04 323.96 95.92 325Q94.80 326.04 94.80 327.74Q94.80 329.40 95.92 330.42Q97.04 331.45 98.80 331.45M114.35 334.52L110.70 334.52L110.70 311.16L115.60 311.16L122.10 330.04Q122 329.02 121.90 327.62Q121.81 326.23 121.73 324.79Q121.65 323.35 121.65 322.23L121.65 311.16L125.30 311.16L125.30 334.52L120.40 334.52L113.97 315.64Q114.03 316.57 114.13 317.88Q114.22 319.19 114.29 320.57Q114.35 321.94 114.35 323.10" fill="white" fill-opacity="0.9"/>
<path d="M161.48 325.24L151.24 325.24L151.24 322.68L161.48 322.68" fill="white" fill-opacity="0.9"/>
<path d="M195.02 334.84Q191.82 334.84 189.96 333.05Q188.11 331.26 188.11 328.12L188.11 317.56Q188.11 314.42 189.96 312.63Q191.82 310.84 195.02 310.84Q198.15 310.84 200.01 312.65Q201.87 314.46 201.87 317.56L198.99 317.56Q198.99 315.58 197.95 314.50Q196.91 313.43 195.02 313.43Q193.13 313.43 192.06 314.50Q190.99 315.58 190.99 317.56L190.99 328.12Q190.99 330.10 192.06 331.18Q193.13 332.25 195.02 332.25Q196.91 332.25 197.95 331.18Q198.99 330.10 198.99 328.12L201.87 328.12Q201.87 331.22 200.01 333.03Q198.15 334.84 195.02 334.84" fill="white" fill-opacity="0.9"/>
<path d="M213.96 334.84Q210.83 334.84 209 333.02Q207.18 331.19 207.18 327.80L207.18 317.88Q207.18 314.49 209 312.66Q210.83 310.84 213.96 310.84Q217.10 310.84 218.92 312.66Q220.75 314.49 220.75 317.85L220.75 327.80Q220.75 331.19 218.92 333.02Q217.10 334.84 213.96 334.84M213.96 332.25Q215.85 332.25 216.86 331.18Q217.87 330.10 217.87 328.12L217.87 317.56Q217.87 315.58 216.86 314.50Q215.85 313.43 213.96 313.43Q212.11 313.43 211.08 314.50Q210.06 315.58 210.06 317.56L210.06 328.12Q210.06 330.10 211.08 331.18Q212.11 332.25 213.96 332.25" fill="white" fill-opacity="0.9"/>
<path d="M228.65 334.52L225.87 334.52L225.87 311.16L230.12 311.16L233.10 321.27L236.20 311.16L240.46 311.16L240.46 334.52L237.67 334.52L237.67 323.48Q237.67 321.91 237.72 319.88Q237.77 317.85 237.87 315.77Q237.96 313.69 238.09 312.02L234.31 324.09L231.82 324.09L228.20 312.31Q228.46 314.68 228.55 317.50Q228.65 320.31 228.65 323.48" fill="white" fill-opacity="0.9"/>
<path d="M247.85 334.52L245.07 334.52L245.07 311.16L249.32 311.16L252.30 321.27L255.40 311.16L259.66 311.16L259.66 334.52L256.87 334.52L256.87 323.48Q256.87 321.91 256.92 319.88Q256.97 317.85 257.07 315.77Q257.16 313.69 257.29 312.02L253.51 324.09L251.02 324.09L247.40 312.31Q247.66 314.68 247.75 317.50Q247.85 320.31 247.85 323.48" fill="white" fill-opacity="0.9"/>
<path d="M271.56 334.84Q268.30 334.84 266.57 333.03Q264.84 331.22 264.84 328.12L264.84 311.16L267.72 311.16L267.72 328.12Q267.72 330.04 268.67 331.16Q269.61 332.28 271.56 332.28Q273.48 332.28 274.44 331.16Q275.40 330.04 275.40 328.12L275.40 311.16L278.28 311.16L278.28 328.12Q278.28 331.26 276.57 333.05Q274.86 334.84 271.56 334.84" fill="white" fill-opacity="0.9"/>
<path d="M286.83 334.52L284.04 334.52L284.04 311.16L287.88 311.16L295.02 331.16Q294.95 330.36 294.87 329.19Q294.79 328.02 294.75 326.73Q294.70 325.43 294.70 324.28L294.70 311.16L297.48 311.16L297.48 334.52L293.64 334.52L286.54 314.52Q286.60 315.29 286.67 316.46Q286.73 317.62 286.78 318.92Q286.83 320.22 286.83 321.40" fill="white" fill-opacity="0.9"/>
<path d="M316.20 334.52L303.72 334.52L303.72 331.90L308.49 331.90L308.49 313.78L303.72 313.78L303.72 311.16L316.20 311.16L316.20 313.78L311.43 313.78L311.43 331.90L316.20 331.90" fill="white" fill-opacity="0.9"/>
<path d="M330.60 334.52L327.72 334.52L327.72 313.78L321.32 313.78L321.32 311.16L337 311.16L337 313.78L330.60 313.78" fill="white" fill-opacity="0.9"/>
<path d="M349.80 334.52L346.92 334.52L346.92 325.78L339.88 311.16L342.95 311.16L347.50 320.76Q347.88 321.56 348.11 322.12Q348.33 322.68 348.39 322.94Q348.46 322.68 348.70 322.12Q348.94 321.56 349.32 320.76L353.87 311.16L356.84 311.16L349.80 325.78" fill="white" fill-opacity="0.9"/>
<path d="M382.83 334.52L380.04 334.52L380.04 311.16L383.88 311.16L391.02 331.16Q390.95 330.36 390.87 329.19Q390.79 328.02 390.75 326.73Q390.70 325.43 390.70 324.28L390.70 311.16L393.48 311.16L393.48 334.52L389.64 334.52L382.54 314.52Q382.60 315.29 382.67 316.46Q382.73 317.62 382.78 318.92Q382.83 320.22 382.83 321.40" fill="white" fill-opacity="0.9"/>
<path d="M405.96 334.84Q402.83 334.84 401 333.02Q399.18 331.19 399.18 327.80L399.18 317.88Q399.18 314.49 401 312.66Q402.83 310.84 405.96 310.84Q409.10 310.84 410.92 312.66Q412.75 314.49 412.75 317.85L412.75 327.80Q412.75 331.19 410.92 333.02Q409.10 334.84 405.96 334.84M405.96 332.25Q407.85 332.25 408.86 331.18Q409.87 330.10 409.87 328.12L409.87 317.56Q409.87 315.58 408.86 314.50Q407.85 313.43 405.96 313.43Q404.11 313.43 403.08 314.50Q402.06 315.58 402.06 317.56L402.06 328.12Q402.06 330.10 403.08 331.18Q404.11 332.25 405.96 332.25" fill="white" fill-opacity="0.9"/>
<path d="M424.55 334.52L418.51 334.52L418.51 311.16L424.55 311.16Q426.83 311.16 428.47 312.02Q430.12 312.89 431.03 314.46Q431.95 316.02 431.95 318.17L431.95 327.48Q431.95 329.62 431.03 331.21Q430.12 332.79 428.47 333.66Q426.83 334.52 424.55 334.52M421.39 313.72L421.39 331.96L424.55 331.96Q426.67 331.96 427.87 330.78Q429.07 329.59 429.07 327.48L429.07 318.17Q429.07 316.09 427.87 314.90Q426.67 313.72 424.55 313.72" fill="white" fill-opacity="0.9"/>
<path d="M451.40 334.52L437.96 334.52L437.96 311.16L451.40 311.16L451.40 313.78L440.81 313.78L440.81 321.02L450.28 321.02L450.28 323.58L440.81 323.58L440.81 331.90L451.40 331.90" fill="white" fill-opacity="0.9"/>
<path d="M463.69 334.84Q460.30 334.84 458.28 333.05Q456.27 331.26 456.27 328.12L459.15 328.12Q459.15 330.07 460.39 331.18Q461.64 332.28 463.69 332.28Q465.67 332.28 466.86 331.13Q468.04 329.98 468.04 328.12Q468.04 326.71 467.29 325.67Q466.54 324.63 465.13 324.25L461.58 323.26Q459.37 322.62 458.11 320.97Q456.84 319.32 456.84 317.08Q456.84 315.22 457.67 313.82Q458.51 312.41 460.01 311.62Q461.51 310.84 463.47 310.84Q465.45 310.84 466.97 311.62Q468.49 312.41 469.35 313.80Q470.22 315.19 470.22 317.02L467.34 317.02Q467.34 315.42 466.25 314.41Q465.16 313.40 463.47 313.40Q461.77 313.40 460.71 314.41Q459.66 315.42 459.66 317.02Q459.66 318.30 460.35 319.21Q461.03 320.12 462.28 320.47L465.93 321.50Q468.27 322.14 469.56 323.91Q470.86 325.69 470.86 328.12Q470.86 331.19 468.91 333.02Q466.95 334.84 463.69 334.84" fill="white" fill-opacity="0.9"/>
</g>
<path d="M74.25 197.64L72.16 197.64L72.16 180.12L75.04 180.12L80.39 195.12Q80.34 194.52 80.28 193.64Q80.22 192.77 80.19 191.80Q80.15 190.82 80.15 189.96L80.15 180.12L82.24 180.12L82.24 197.64L79.36 197.64L74.03 182.64Q74.08 183.22 74.13 184.09Q74.18 184.97 74.21 185.94Q74.25 186.91 74.25 187.80" fill="white" fill-opacity="0.7"/>
<path d="M91.70 197.88Q89.15 197.88 87.64 196.54Q86.13 195.19 86.13 192.84L88.29 192.84Q88.29 194.30 89.22 195.13Q90.16 195.96 91.70 195.96Q93.18 195.96 94.07 195.10Q94.96 194.23 94.96 192.84Q94.96 191.78 94.40 191Q93.83 190.22 92.78 189.94L90.11 189.19Q88.46 188.71 87.51 187.48Q86.56 186.24 86.56 184.56Q86.56 183.17 87.18 182.11Q87.81 181.06 88.94 180.47Q90.06 179.88 91.53 179.88Q93.02 179.88 94.16 180.47Q95.30 181.06 95.94 182.10Q96.59 183.14 96.59 184.51L94.43 184.51Q94.43 183.31 93.62 182.56Q92.80 181.80 91.53 181.80Q90.26 181.80 89.46 182.56Q88.67 183.31 88.67 184.51Q88.67 185.47 89.19 186.16Q89.70 186.84 90.64 187.10L93.38 187.87Q95.13 188.35 96.10 189.68Q97.07 191.02 97.07 192.84Q97.07 195.14 95.61 196.51Q94.14 197.88 91.70 197.88" fill="white" fill-opacity="0.7"/>
<path d="M105.54 197.64L101.01 197.64L101.01 180.12L105.54 180.12Q107.25 180.12 108.48 180.77Q109.72 181.42 110.40 182.59Q111.09 183.77 111.09 185.38L111.09 192.36Q111.09 193.97 110.40 195.16Q109.72 196.34 108.48 196.99Q107.25 197.64 105.54 197.64M103.17 182.04L103.17 195.72L105.54 195.72Q107.13 195.72 108.03 194.83Q108.93 193.94 108.93 192.36L108.93 185.38Q108.93 183.82 108.03 182.93Q107.13 182.04 105.54 182.04" fill="white" fill-opacity="0.7"/>
<path d="M120.59 197.88Q118.19 197.88 116.80 196.54Q115.41 195.19 115.41 192.84L115.41 184.92Q115.41 182.57 116.80 181.22Q118.19 179.88 120.59 179.88Q122.94 179.88 124.34 181.24Q125.73 182.59 125.73 184.92L123.57 184.92Q123.57 183.43 122.79 182.63Q122.01 181.82 120.59 181.82Q119.18 181.82 118.37 182.63Q117.57 183.43 117.57 184.92L117.57 192.84Q117.57 194.33 118.37 195.13Q119.18 195.94 120.59 195.94Q122.01 195.94 122.79 195.13Q123.57 194.33 123.57 192.84L125.73 192.84Q125.73 195.17 124.34 196.52Q122.94 197.88 120.59 197.88" fill="white" fill-opacity="0.7"/>
<path d="M149.39 197.88Q146.99 197.88 145.55 196.54Q144.11 195.19 144.11 192.84L144.11 189.24Q144.11 186.89 145.55 185.54Q146.99 184.20 149.39 184.20Q151.67 184.20 153.08 185.42Q154.48 186.65 154.55 188.76L152.39 188.76Q152.32 187.49 151.53 186.80Q150.74 186.12 149.39 186.12Q147.98 186.12 147.12 186.92Q146.27 187.73 146.27 189.22L146.27 192.84Q146.27 194.33 147.12 195.14Q147.98 195.96 149.39 195.96Q150.74 195.96 151.53 195.26Q152.32 194.57 152.39 193.32L154.55 193.32Q154.48 195.43 153.08 196.66Q151.67 197.88 149.39 197.88" fill="white" fill-opacity="0.7"/>
<path d="M162.45 197.88Q160.41 197.88 159.21 196.74Q158.01 195.60 158.01 193.75Q158.01 192.53 158.56 191.62Q159.11 190.70 160.10 190.19Q161.08 189.67 162.35 189.67L166.43 189.67L166.43 188.64Q166.43 186.07 163.62 186.07Q162.38 186.07 161.61 186.53Q160.84 186.98 160.79 187.80L158.63 187.80Q158.75 186.24 160.08 185.22Q161.42 184.20 163.62 184.20Q166.02 184.20 167.31 185.35Q168.59 186.50 168.59 188.57L168.59 197.64L166.46 197.64L166.46 195.24L166.41 195.24Q166.22 196.46 165.18 197.17Q164.15 197.88 162.45 197.88M162.98 196.06Q164.56 196.06 165.50 195.29Q166.43 194.52 166.43 193.20L166.43 191.35L162.59 191.35Q161.54 191.35 160.88 191.99Q160.22 192.62 160.22 193.68Q160.22 194.78 160.95 195.42Q161.68 196.06 162.98 196.06" fill="white" fill-opacity="0.7"/>
<path d="M183.16 197.64L179.32 197.64Q177.69 197.64 176.70 196.69Q175.72 195.74 175.72 194.16L175.72 186.41L171.93 186.41L171.93 184.44L175.72 184.44L175.72 180.72L177.88 180.72L177.88 184.44L183.28 184.44L183.28 186.41L177.88 186.41L177.88 194.16Q177.88 194.83 178.28 195.25Q178.67 195.67 179.32 195.67L183.16 195.67" fill="white" fill-opacity="0.7"/>
<path d="M191.25 197.88Q189.21 197.88 188.01 196.74Q186.81 195.60 186.81 193.75Q186.81 192.53 187.36 191.62Q187.91 190.70 188.90 190.19Q189.88 189.67 191.15 189.67L195.23 189.67L195.23 188.64Q195.23 186.07 192.42 186.07Q191.18 186.07 190.41 186.53Q189.64 186.98 189.59 187.80L187.43 187.80Q187.55 186.24 188.88 185.22Q190.22 184.20 192.42 184.20Q194.82 184.20 196.11 185.35Q197.39 186.50 197.39 188.57L197.39 197.64L195.26 197.64L195.26 195.24L195.21 195.24Q195.02 196.46 193.98 197.17Q192.95 197.88 191.25 197.88M191.78 196.06Q193.36 196.06 194.30 195.29Q195.23 194.52 195.23 193.20L195.23 191.35L191.39 191.35Q190.34 191.35 189.68 191.99Q189.02 192.62 189.02 193.68Q189.02 194.78 189.75 195.42Q190.48 196.06 191.78 196.06" fill="white" fill-opacity="0.7"/>
<path d="M212.80 197.64L208.72 197.64Q206.97 197.64 205.92 196.62Q204.88 195.60 204.88 193.92L204.88 182.09L200.32 182.09L200.32 180.12L207.04 180.12L207.04 193.92Q207.04 194.74 207.50 195.20Q207.95 195.67 208.72 195.67L212.80 195.67" fill="white" fill-opacity="0.7"/>
<path d="M220.53 201.96L218.27 201.96L220.22 196.82L215.30 184.44L217.62 184.44L220.74 192.60Q220.94 193.08 221.10 193.61Q221.27 194.14 221.34 194.52Q221.42 194.14 221.58 193.61Q221.75 193.08 221.92 192.60L224.82 184.44L227.10 184.44" fill="white" fill-opacity="0.7"/>
<path d="M240.64 197.64L230.56 197.64L230.56 195.48L237.95 186.41L230.75 186.41L230.75 184.44L240.38 184.44L240.38 186.60L232.84 195.67L240.64 195.67" fill="white" fill-opacity="0.7"/>
<path d="MNaN 197.88Q247.67 197.88 246.24 196.48Q244.82 195.07 244.82 192.60L244.82 189.48Q244.82 187.01 246.24 185.60Q247.67 184.20 NaN 184.20Q251.56 184.20 252.72 184.82Q253.89 185.45 254.54 186.58Q255.18 187.70 255.18 189.24L255.18 191.59L246.93 191.59L246.93 192.84Q246.93 194.30 247.77 195.16Q248.61 196.01 NaN 196.01Q251.20 196.01 251.98 195.54Q252.76 195.07 252.93 194.28L255.09 194.28Q254.87 195.94 253.48 196.91Q252.09 197.88 NaN 197.88M246.93 189.24L246.93 189.91L253.07 189.91L253.07 189.24Q253.07 187.68 252.27 186.83Q251.46 185.98 NaN 185.98Q248.54 185.98 247.73 186.83Q246.93 187.68 246.93 189.24" fill="white" fill-opacity="0.7"/>
<path d="M264.93 197.83L263.87 197.83Q261.66 197.83 260.45 196.84Q259.24 195.84 259.24 194.02L261.40 194.02Q261.40 194.93 262.05 195.44Q262.70 195.96 263.87 195.96L264.93 195.96Q266.13 195.96 266.79 195.43Q267.45 194.90 267.45 193.94Q267.45 192.24 265.89 192.02L262.24 191.50Q260.90 191.30 260.15 190.38Q259.41 189.46 259.41 187.94Q259.41 186.22 260.60 185.23Q261.78 184.25 263.87 184.25L264.93 184.25Q266.85 184.25 268.06 185.20Q269.27 186.14 269.37 187.68L267.18 187.68Q267.14 186.98 266.52 186.53Q265.91 186.07 264.93 186.07L263.87 186.07Q262.77 186.07 262.14 186.58Q261.52 187.08 261.52 187.94Q261.52 189.34 262.79 189.53L266.20 190.01Q269.56 190.49 269.56 193.94Q269.56 195.79 268.35 196.81Q267.14 197.83 264.93 197.83" fill="white" fill-opacity="0.7"/>
<path d="M299.20 197.64L295.12 197.64Q293.37 197.64 292.32 196.62Q291.28 195.60 291.28 193.92L291.28 182.09L286.72 182.09L286.72 180.12L293.44 180.12L293.44 193.92Q293.44 194.74 293.90 195.20Q294.35 195.67 295.12 195.67L299.20 195.67" fill="white" fill-opacity="0.7"/>
<path d="M306.45 197.88Q304.41 197.88 303.21 196.74Q302.01 195.60 302.01 193.75Q302.01 192.53 302.56 191.62Q303.11 190.70 304.10 190.19Q305.08 189.67 306.35 189.67L310.43 189.67L310.43 188.64Q310.43 186.07 307.62 186.07Q306.38 186.07 305.61 186.53Q304.84 186.98 304.79 187.80L302.63 187.80Q302.75 186.24 304.08 185.22Q305.42 184.20 307.62 184.20Q310.02 184.20 311.31 185.35Q312.59 186.50 312.59 188.57L312.59 197.64L310.46 197.64L310.46 195.24L310.41 195.24Q310.22 196.46 309.18 197.17Q308.15 197.88 306.45 197.88M306.98 196.06Q308.56 196.06 309.50 195.29Q310.43 194.52 310.43 193.20L310.43 191.35L306.59 191.35Q305.54 191.35 304.88 191.99Q304.22 192.62 304.22 193.68Q304.22 194.78 304.95 195.42Q305.68 196.06 306.98 196.06" fill="white" fill-opacity="0.7"/>
<path d="M319.65 197.64L317.49 197.64L317.49 184.44L319.65 184.44L319.65 186.96L319.70 186.96Q319.86 185.69 320.78 184.94Q321.69 184.20 323.22 184.20Q325.29 184.20 326.40 185.44Q327.52 186.67 327.52 188.95L327.52 190.08L325.36 190.08L325.36 188.95Q325.36 186.07 322.55 186.07Q321.14 186.07 320.39 186.89Q319.65 187.70 319.65 189.24" fill="white" fill-opacity="0.7"/>
<path d="M336.76 201.96L333.06 201.96L333.06 199.99L336.78 199.99Q337.91 199.99 338.56 199.36Q339.21 198.72 339.21 197.64L339.21 196.44L339.26 194.28L339.18 194.28Q338.99 195.46 338.06 196.09Q337.12 196.73 335.70 196.73Q333.66 196.73 332.49 195.43Q331.31 194.14 331.31 191.88L331.31 189.10Q331.31 186.84 332.49 185.52Q333.66 184.20 335.70 184.20Q337.12 184.20 338.06 184.87Q338.99 185.54 339.18 186.72L339.23 186.72L339.23 184.44L341.37 184.44L341.37 197.64Q341.37 199.63 340.13 200.80Q338.90 201.96 336.76 201.96M336.35 194.93Q337.70 194.93 338.46 194.09Q339.23 193.25 339.23 191.76L339.23 189.24Q339.23 187.75 338.46 186.91Q337.70 186.07 336.35 186.07Q334.98 186.07 334.23 186.86Q333.47 187.66 333.47 189L333.47 192Q333.47 193.34 334.23 194.14Q334.98 194.93 336.35 194.93" fill="white" fill-opacity="0.7"/>
<path d="M350.80 197.88Q348.47 197.88 347.04 196.48Q345.62 195.07 345.62 192.60L345.62 189.48Q345.62 187.01 347.04 185.60Q348.47 184.20 350.80 184.20Q352.36 184.20 353.52 184.82Q354.69 185.45 355.34 186.58Q355.98 187.70 355.98 189.24L355.98 191.59L347.73 191.59L347.73 192.84Q347.73 194.30 348.57 195.16Q349.41 196.01 350.80 196.01Q352 196.01 352.78 195.54Q353.56 195.07 353.73 194.28L355.89 194.28Q355.67 195.94 354.28 196.91Q352.89 197.88 350.80 197.88M347.73 189.24L347.73 189.91L353.87 189.91L353.87 189.24Q353.87 187.68 353.07 186.83Q352.26 185.98 350.80 185.98Q349.34 185.98 348.53 186.83Q347.73 187.68 347.73 189.24" fill="white" fill-opacity="0.7"/>
<path d="M365.27 201.48L363.04 201.48L364.36 194.14L366.95 194.14" fill="white" fill-opacity="0.7"/>
<path d="M398.99 201.96L396.83 201.96L396.83 198.12L396.88 195.12L396.81 195.12Q396.64 196.39 395.68 197.14Q394.72 197.88 393.23 197.88Q391.24 197.88 390.06 196.56Q388.89 195.24 388.89 192.96L388.89 189.10Q388.89 186.82 390.08 185.51Q391.26 184.20 393.23 184.20Q394.72 184.20 395.68 184.93Q396.64 185.66 396.81 186.96L396.83 186.96L396.83 184.44L398.99 184.44L398.99 201.96M393.95 196.01Q395.30 196.01 396.06 195.17Q396.83 194.33 396.83 192.84L396.83 189.24Q396.83 187.75 396.06 186.91Q395.30 186.07 393.95 186.07Q392.58 186.07 391.82 186.77Q391.05 187.46 391.05 189L391.05 193.08Q391.05 194.62 391.82 195.31Q392.58 196.01 393.95 196.01" fill="white" fill-opacity="0.7"/>
<path d="M408.38 197.88Q406.10 197.88 404.73 196.52Q403.36 195.17 403.36 192.84L403.36 184.44L405.52 184.44L405.52 192.84Q405.52 194.28 406.29 195.13Q407.06 195.98 408.38 195.98Q409.72 195.98 410.50 195.13Q411.28 194.28 411.28 192.84L411.28 184.44L413.44 184.44L413.44 192.84Q413.44 195.17 412.05 196.52Q410.66 197.88 408.38 197.88" fill="white" fill-opacity="0.7"/>
<path d="M421.65 197.88Q419.61 197.88 418.41 196.74Q417.21 195.60 417.21 193.75Q417.21 192.53 417.76 191.62Q418.31 190.70 419.30 190.19Q420.28 189.67 421.55 189.67L425.63 189.67L425.63 188.64Q425.63 186.07 422.82 186.07Q421.58 186.07 420.81 186.53Q420.04 186.98 419.99 187.80L417.83 187.80Q417.95 186.24 419.28 185.22Q420.62 184.20 422.82 184.20Q425.22 184.20 426.51 185.35Q427.79 186.50 427.79 188.57L427.79 197.64L425.66 197.64L425.66 195.24L425.61 195.24Q425.42 196.46 424.38 197.17Q423.35 197.88 421.65 197.88M422.18 196.06Q423.76 196.06 424.70 195.29Q425.63 194.52 425.63 193.20L425.63 191.35L421.79 191.35Q420.74 191.35 420.08 191.99Q419.42 192.62 419.42 193.68Q419.42 194.78 420.15 195.42Q420.88 196.06 422.18 196.06" fill="white" fill-opacity="0.7"/>
<path d="M443.20 197.64L439.12 197.64Q437.37 197.64 436.32 196.62Q435.28 195.60 435.28 193.92L435.28 182.09L430.72 182.09L430.72 180.12L437.44 180.12L437.44 193.92Q437.44 194.74 437.90 195.20Q438.35 195.67 439.12 195.67L443.20 195.67" fill="white" fill-opacity="0.7"/>
<path d="M457.72 197.64L446.44 197.64L446.44 195.67L451.12 195.67L451.12 186.41L446.92 186.41L446.92 184.44L453.28 184.44L453.28 195.67L457.72 195.67L457.72 197.64M451.96 182.06Q451.17 182.06 450.71 181.66Q450.26 181.25 450.26 180.55Q450.26 179.83 450.71 179.41Q451.17 178.99 451.96 178.99Q452.75 178.99 453.21 179.41Q453.66 179.83 453.66 180.55Q453.66 181.25 453.21 181.66Q452.75 182.06 451.96 182.06" fill="white" fill-opacity="0.7"/>
<path d="M471.16 197.64L467.32 197.64Q465.69 197.64 464.70 196.69Q463.72 195.74 463.72 194.16L463.72 186.41L459.93 186.41L459.93 184.44L463.72 184.44L463.72 180.72L465.88 180.72L465.88 184.44L471.28 184.44L471.28 186.41L465.88 186.41L465.88 194.16Q465.88 194.83 466.28 195.25Q466.67 195.67 467.32 195.67L471.16 195.67" fill="white" fill-opacity="0.7"/>
<path d="M479.73 201.96L477.47 201.96L479.42 196.82L474.50 184.44L476.82 184.44L479.94 192.60Q480.14 193.08 480.30 193.61Q480.47 194.14 480.54 194.52Q480.62 194.14 480.78 193.61Q480.95 193.08 481.12 192.60L484.02 184.44L486.30 184.44" fill="white" fill-opacity="0.7"/>
<path d="M510.62 197.64L507.78 197.64L503.30 184.44L505.62 184.44L508.50 193.32Q508.77 194.11 508.96 194.84Q509.15 195.58 509.25 195.98Q509.37 195.58 509.54 194.84Q509.70 194.11 509.94 193.32L512.82 184.44L515.10 184.44" fill="white" fill-opacity="0.7"/>
<path d="M523.60 197.83Q521.22 197.83 519.82 196.44Q518.42 195.05 518.42 192.55L518.42 189.53Q518.42 187.01 519.81 185.63Q521.20 184.25 523.60 184.25Q526 184.25 527.39 185.63Q528.78 187.01 528.78 189.53L528.78 192.55Q528.78 195.05 527.38 196.44Q525.98 197.83 523.60 197.83M523.60 195.91Q525.02 195.91 525.82 195.12Q526.62 194.33 526.62 192.79L526.62 189.29Q526.62 187.75 525.82 186.96Q525.02 186.17 523.60 186.17Q522.21 186.17 521.39 186.96Q520.58 187.75 520.58 189.29L520.58 192.79Q520.58 194.33 521.39 195.12Q522.21 195.91 523.60 195.91" fill="white" fill-opacity="0.7"/>
<path d="M538.19 197.88Q535.79 197.88 534.35 196.54Q532.91 195.19 532.91 192.84L532.91 189.24Q532.91 186.89 534.35 185.54Q535.79 184.20 538.19 184.20Q540.47 184.20 541.88 185.42Q543.28 186.65 543.35 188.76L541.19 188.76Q541.12 187.49 540.33 186.80Q539.54 186.12 538.19 186.12Q536.78 186.12 535.92 186.92Q535.07 187.73 535.07 189.22L535.07 192.84Q535.07 194.33 535.92 195.14Q536.78 195.96 538.19 195.96Q539.54 195.96 540.33 195.26Q541.12 194.57 541.19 193.32L543.35 193.32Q543.28 195.43 541.88 196.66Q540.47 197.88 538.19 197.88" fill="white" fill-opacity="0.7"/>
<path d="M551.25 197.88Q549.21 197.88 548.01 196.74Q546.81 195.60 546.81 193.75Q546.81 192.53 547.36 191.62Q547.91 190.70 548.90 190.19Q549.88 189.67 551.15 189.67L555.23 189.67L555.23 188.64Q555.23 186.07 552.42 186.07Q551.18 186.07 550.41 186.53Q549.64 186.98 549.59 187.80L547.43 187.80Q547.55 186.24 548.88 185.22Q550.22 184.20 552.42 184.20Q554.82 184.20 556.11 185.35Q557.39 186.50 557.39 188.57L557.39 197.64L555.26 197.64L555.26 195.24L555.21 195.24Q555.02 196.46 553.98 197.17Q552.95 197.88 551.25 197.88M551.78 196.06Q553.36 196.06 554.30 195.29Q555.23 194.52 555.23 193.20L555.23 191.35L551.39 191.35Q550.34 191.35 549.68 191.99Q549.02 192.62 549.02 193.68Q549.02 194.78 549.75 195.42Q550.48 196.06 551.78 196.06" fill="white" fill-opacity="0.7"/>
<path d="M571.96 197.64L568.12 197.64Q566.49 197.64 565.50 196.69Q564.52 195.74 564.52 194.16L564.52 186.41L560.73 186.41L560.73 184.44L564.52 184.44L564.52 180.72L566.68 180.72L566.68 184.44L572.08 184.44L572.08 186.41L566.68 186.41L566.68 194.16Q566.68 194.83 567.08 195.25Q567.47 195.67 568.12 195.67L571.96 195.67" fill="white" fill-opacity="0.7"/>
<path d="M587.32 197.64L576.04 197.64L576.04 195.67L580.72 195.67L580.72 186.41L576.52 186.41L576.52 184.44L582.88 184.44L582.88 195.67L587.32 195.67L587.32 197.64M581.56 182.06Q580.77 182.06 580.31 181.66Q579.86 181.25 579.86 180.55Q579.86 179.83 580.31 179.41Q580.77 178.99 581.56 178.99Q582.35 178.99 582.81 179.41Q583.26 179.83 583.26 180.55Q583.26 181.25 582.81 181.66Q582.35 182.06 581.56 182.06" fill="white" fill-opacity="0.7"/>
<path d="M595.60 197.83Q593.22 197.83 591.82 196.44Q590.42 195.05 590.42 192.55L590.42 189.53Q590.42 187.01 591.81 185.63Q593.20 184.25 595.60 184.25Q598 184.25 599.39 185.63Q600.78 187.01 600.78 189.53L600.78 192.55Q600.78 195.05 599.38 196.44Q597.98 197.83 595.60 197.83M595.60 195.91Q597.02 195.91 597.82 195.12Q598.62 194.33 598.62 192.79L598.62 189.29Q598.62 187.75 597.82 186.96Q597.02 186.17 595.60 186.17Q594.21 186.17 593.39 186.96Q592.58 187.75 592.58 189.29L592.58 192.79Q592.58 194.33 593.39 195.12Q594.21 195.91 595.60 195.91" fill="white" fill-opacity="0.7"/>
<path d="M607.17 197.64L605.01 197.64L605.01 184.44L607.17 184.44L607.17 186.96L607.19 186.96Q607.36 185.64 608.27 184.92Q609.18 184.20 610.70 184.20Q612.69 184.20 613.86 185.42Q615.04 186.65 615.04 188.76L615.04 197.64L612.88 197.64L612.88 189.14Q612.88 187.63 612.12 186.83Q611.37 186.02 610.07 186.02Q608.73 186.02 607.95 186.86Q607.17 187.70 607.17 189.24" fill="white" fill-opacity="0.7"/>
<path d="M623.25 197.88Q621.21 197.88 620.01 196.74Q618.81 195.60 618.81 193.75Q618.81 192.53 619.36 191.62Q619.91 190.70 620.90 190.19Q621.88 189.67 623.15 189.67L627.23 189.67L627.23 188.64Q627.23 186.07 624.42 186.07Q623.18 186.07 622.41 186.53Q621.64 186.98 621.59 187.80L619.43 187.80Q619.55 186.24 620.88 185.22Q622.22 184.20 624.42 184.20Q626.82 184.20 628.11 185.35Q629.39 186.50 629.39 188.57L629.39 197.64L627.26 197.64L627.26 195.24L627.21 195.24Q627.02 196.46 625.98 197.17Q624.95 197.88 623.25 197.88M623.78 196.06Q625.36 196.06 626.30 195.29Q627.23 194.52 627.23 193.20L627.23 191.35L623.39 191.35Q622.34 191.35 621.68 191.99Q621.02 192.62 621.02 193.68Q621.02 194.78 621.75 195.42Q622.48 196.06 623.78 196.06" fill="white" fill-opacity="0.7"/>
<path d="M644.80 197.64L640.72 197.64Q638.97 197.64 637.92 196.62Q636.88 195.60 636.88 193.92L636.88 182.09L632.32 182.09L632.32 180.12L639.04 180.12L639.04 193.92Q639.04 194.74 639.50 195.20Q639.95 195.67 640.72 195.67L644.80 195.67" fill="white" fill-opacity="0.7"/>
<path d="M673.72 197.64L662.44 197.64L662.44 195.67L667.12 195.67L667.12 186.41L662.92 186.41L662.92 184.44L669.28 184.44L669.28 195.67L673.72 195.67L673.72 197.64M667.96 182.06Q667.17 182.06 666.71 181.66Q666.26 181.25 666.26 180.55Q666.26 179.83 666.71 179.41Q667.17 178.99 667.96 178.99Q668.75 178.99 669.21 179.41Q669.66 179.83 669.66 180.55Q669.66 181.25 669.21 181.66Q668.75 182.06 667.96 182.06" fill="white" fill-opacity="0.7"/>
<path d="M679.17 197.64L677.01 197.64L677.01 184.44L679.17 184.44L679.17 186.96L679.19 186.96Q679.36 185.64 680.27 184.92Q681.18 184.20 682.70 184.20Q684.69 184.20 685.86 185.42Q687.04 186.65 687.04 188.76L687.04 197.64L684.88 197.64L684.88 189.14Q684.88 187.63 684.12 186.83Q683.37 186.02 682.07 186.02Q680.73 186.02 679.95 186.86Q679.17 187.70 679.17 189.24" fill="white" fill-opacity="0.7"/>
<path d="M696.93 197.83L695.87 197.83Q693.66 197.83 692.45 196.84Q691.24 195.84 691.24 194.02L693.40 194.02Q693.40 194.93 694.05 195.44Q694.70 195.96 695.87 195.96L696.93 195.96Q698.13 195.96 698.79 195.43Q699.45 194.90 699.45 193.94Q699.45 192.24 697.89 192.02L694.24 191.50Q692.90 191.30 692.15 190.38Q691.41 189.46 691.41 187.94Q691.41 186.22 692.60 185.23Q693.78 184.25 695.87 184.25L696.93 184.25Q698.85 184.25 700.06 185.20Q701.27 186.14 701.37 187.68L699.18 187.68Q699.14 186.98 698.52 186.53Q697.91 186.07 696.93 186.07L695.87 186.07Q694.77 186.07 694.14 186.58Q693.52 187.08 693.52 187.94Q693.52 189.34 694.79 189.53L698.20 190.01Q701.56 190.49 701.56 193.94Q701.56 195.79 700.35 196.81Q699.14 197.83 696.93 197.83" fill="white" fill-opacity="0.7"/>
<path d="M715.96 197.64L712.12 197.64Q710.49 197.64 709.50 196.69Q708.52 195.74 708.52 194.16L708.52 186.41L704.73 186.41L704.73 184.44L708.52 184.44L708.52 180.72L710.68 180.72L710.68 184.44L716.08 184.44L716.08 186.41L710.68 186.41L710.68 194.16Q710.68 194.83 711.08 195.25Q711.47 195.67 712.12 195.67L715.96 195.67" fill="white" fill-opacity="0.7"/>
<path d="M731.32 197.64L720.04 197.64L720.04 195.67L724.72 195.67L724.72 186.41L720.52 186.41L720.52 184.44L726.88 184.44L726.88 195.67L731.32 195.67L731.32 197.64M725.56 182.06Q724.77 182.06 724.31 181.66Q723.86 181.25 723.86 180.55Q723.86 179.83 724.31 179.41Q724.77 178.99 725.56 178.99Q726.35 178.99 726.81 179.41Q727.26 179.83 727.26 180.55Q727.26 181.25 726.81 181.66Q726.35 182.06 725.56 182.06" fill="white" fill-opacity="0.7"/>
<path d="M744.76 197.64L740.92 197.64Q739.29 197.64 738.30 196.69Q737.32 195.74 737.32 194.16L737.32 186.41L733.53 186.41L733.53 184.44L737.32 184.44L737.32 180.72L739.48 180.72L739.48 184.44L744.88 184.44L744.88 186.41L739.48 186.41L739.48 194.16Q739.48 194.83 739.88 195.25Q740.27 195.67 740.92 195.67L744.76 195.67" fill="white" fill-opacity="0.7"/>
<path d="M753.98 197.88Q751.70 197.88 750.33 196.52Q748.96 195.17 748.96 192.84L748.96 184.44L751.12 184.44L751.12 192.84Q751.12 194.28 751.89 195.13Q752.66 195.98 753.98 195.98Q755.32 195.98 756.10 195.13Q756.88 194.28 756.88 192.84L756.88 184.44L759.04 184.44L759.04 192.84Q759.04 195.17 757.65 196.52Q756.26 197.88 753.98 197.88" fill="white" fill-opacity="0.7"/>
<path d="M773.56 197.64L769.72 197.64Q768.09 197.64 767.10 196.69Q766.12 195.74 766.12 194.16L766.12 186.41L762.33 186.41L762.33 184.44L766.12 184.44L766.12 180.72L768.28 180.72L768.28 184.44L773.68 184.44L773.68 186.41L768.28 186.41L768.28 194.16Q768.28 194.83 768.68 195.25Q769.07 195.67 769.72 195.67L773.56 195.67" fill="white" fill-opacity="0.7"/>
<path d="M788.92 197.64L777.64 197.64L777.64 195.67L782.32 195.67L782.32 186.41L778.12 186.41L778.12 184.44L784.48 184.44L784.48 195.67L788.92 195.67L788.92 197.64M783.16 182.06Q782.37 182.06 781.91 181.66Q781.46 181.25 781.46 180.55Q781.46 179.83 781.91 179.41Q782.37 178.99 783.16 178.99Q783.95 178.99 784.41 179.41Q784.86 179.83 784.86 180.55Q784.86 181.25 784.41 181.66Q783.95 182.06 783.16 182.06" fill="white" fill-opacity="0.7"/>
<path d="M797.20 197.83Q794.82 197.83 793.42 196.44Q792.02 195.05 792.02 192.55L792.02 189.53Q792.02 187.01 793.41 185.63Q794.80 184.25 797.20 184.25Q799.60 184.25 800.99 185.63Q802.38 187.01 802.38 189.53L802.38 192.55Q802.38 195.05 800.98 196.44Q799.58 197.83 797.20 197.83M797.20 195.91Q798.62 195.91 799.42 195.12Q800.22 194.33 800.22 192.79L800.22 189.29Q800.22 187.75 799.42 186.96Q798.62 186.17 797.20 186.17Q795.81 186.17 794.99 186.96Q794.18 187.75 794.18 189.29L794.18 192.79Q794.18 194.33 794.99 195.12Q795.81 195.91 797.20 195.91" fill="white" fill-opacity="0.7"/>
<path d="M808.77 197.64L806.61 197.64L806.61 184.44L808.77 184.44L808.77 186.96L808.79 186.96Q808.96 185.64 809.87 184.92Q810.78 184.20 812.30 184.20Q814.29 184.20 815.46 185.42Q816.64 186.65 816.64 188.76L816.64 197.64L814.48 197.64L814.48 189.14Q814.48 187.63 813.72 186.83Q812.97 186.02 811.67 186.02Q810.33 186.02 809.55 186.86Q808.77 187.70 808.77 189.24" fill="white" fill-opacity="0.7"/>
<path d="M826.53 197.83L825.47 197.83Q823.26 197.83 822.05 196.84Q820.84 195.84 820.84 194.02L823 194.02Q823 194.93 823.65 195.44Q824.30 195.96 825.47 195.96L826.53 195.96Q827.73 195.96 828.39 195.43Q829.05 194.90 829.05 193.94Q829.05 192.24 827.49 192.02L823.84 191.50Q822.50 191.30 821.75 190.38Q821.01 189.46 821.01 187.94Q821.01 186.22 822.20 185.23Q823.38 184.25 825.47 184.25L826.53 184.25Q828.45 184.25 829.66 185.20Q830.87 186.14 830.97 187.68L828.78 187.68Q828.74 186.98 828.12 186.53Q827.51 186.07 826.53 186.07L825.47 186.07Q824.37 186.07 823.74 186.58Q823.12 187.08 823.12 187.94Q823.12 189.34 824.39 189.53L827.80 190.01Q831.16 190.49 831.16 193.94Q831.16 195.79 829.95 196.81Q828.74 197.83 826.53 197.83" fill="white" fill-opacity="0.7"/>
<path d="M854.92 197.64L852.76 197.64L852.76 188.21L848.92 188.21L848.92 186.24L852.76 186.24L852.76 183.48Q852.76 181.92 853.74 181.02Q854.73 180.12 856.46 180.12L860.32 180.12L860.32 182.09L856.46 182.09Q854.92 182.09 854.92 183.48L854.92 186.24L860.32 186.24L860.32 188.21L854.92 188.21" fill="white" fill-opacity="0.7"/>
<path d="M869.20 197.83Q866.82 197.83 865.42 196.44Q864.02 195.05 864.02 192.55L864.02 189.53Q864.02 187.01 865.41 185.63Q866.80 184.25 869.20 184.25Q871.60 184.25 872.99 185.63Q874.38 187.01 874.38 189.53L874.38 192.55Q874.38 195.05 872.98 196.44Q871.58 197.83 869.20 197.83M869.20 195.91Q870.62 195.91 871.42 195.12Q872.22 194.33 872.22 192.79L872.22 189.29Q872.22 187.75 871.42 186.96Q870.62 186.17 869.20 186.17Q867.81 186.17 866.99 186.96Q866.18 187.75 866.18 189.29L866.18 192.79Q866.18 194.33 866.99 195.12Q867.81 195.91 869.20 195.91" fill="white" fill-opacity="0.7"/>
<path d="M881.25 197.64L879.09 197.64L879.09 184.44L881.25 184.44L881.25 186.96L881.30 186.96Q881.46 185.69 882.38 184.94Q883.29 184.20 884.82 184.20Q886.89 184.20 888 185.44Q889.12 186.67 889.12 188.95L889.12 190.08L886.96 190.08L886.96 188.95Q886.96 186.07 884.15 186.07Q882.74 186.07 881.99 186.89Q881.25 187.70 881.25 189.24" fill="white" fill-opacity="0.7"/>
<path d="M912.93 197.83L911.87 197.83Q909.66 197.83 908.45 196.84Q907.24 195.84 907.24 194.02L909.40 194.02Q909.40 194.93 910.05 195.44Q910.70 195.96 911.87 195.96L912.93 195.96Q914.13 195.96 914.79 195.43Q915.45 194.90 915.45 193.94Q915.45 192.24 913.89 192.02L910.24 191.50Q908.90 191.30 908.15 190.38Q907.41 189.46 907.41 187.94Q907.41 186.22 908.60 185.23Q909.78 184.25 911.87 184.25L912.93 184.25Q914.85 184.25 916.06 185.20Q917.27 186.14 917.37 187.68L915.18 187.68Q915.14 186.98 914.52 186.53Q913.91 186.07 912.93 186.07L911.87 186.07Q910.77 186.07 910.14 186.58Q909.52 187.08 909.52 187.94Q909.52 189.34 910.79 189.53L914.20 190.01Q917.56 190.49 917.56 193.94Q917.56 195.79 916.35 196.81Q915.14 197.83 912.93 197.83" fill="white" fill-opacity="0.7"/>
<path d="M924.09 197.64L921.93 197.64L921.93 180.12L924.09 180.12L924.09 189.89L926.61 189.89L930.30 184.44L932.78 184.44L928.53 190.73L933.02 197.64L930.50 197.64L926.66 191.76L924.09 191.76" fill="white" fill-opacity="0.7"/>
<path d="M947.32 197.64L936.04 197.64L936.04 195.67L940.72 195.67L940.72 186.41L936.52 186.41L936.52 184.44L942.88 184.44L942.88 195.67L947.32 195.67L947.32 197.64M941.56 182.06Q940.77 182.06 940.31 181.66Q939.86 181.25 939.86 180.55Q939.86 179.83 940.31 179.41Q940.77 178.99 941.56 178.99Q942.35 178.99 942.81 179.41Q943.26 179.83 943.26 180.55Q943.26 181.25 942.81 181.66Q942.35 182.06 941.56 182.06" fill="white" fill-opacity="0.7"/>
<path d="M961.60 197.64L957.52 197.64Q955.77 197.64 954.72 196.62Q953.68 195.60 953.68 193.92L953.68 182.09L949.12 182.09L949.12 180.12L955.84 180.12L955.84 193.92Q955.84 194.74 956.30 195.20Q956.75 195.67 957.52 195.67L961.60 195.67" fill="white" fill-opacity="0.7"/>
<path d="M976 197.64L971.92 197.64Q970.17 197.64 969.12 196.62Q968.08 195.60 968.08 193.92L968.08 182.09L963.52 182.09L963.52 180.12L970.24 180.12L970.24 193.92Q970.24 194.74 970.70 195.20Q971.15 195.67 971.92 195.67L976 195.67" fill="white" fill-opacity="0.7"/>
<path d="M998.03 197.88Q996.06 197.88 994.88 196.56Q993.69 195.24 993.69 192.98L993.69 189.12Q993.69 186.84 994.86 185.52Q996.04 184.20 998.03 184.20Q999.52 184.20 1000.49 184.94Q1001.46 185.69 1001.66 186.96L1001.68 186.96L1001.63 183.96L1001.63 180.12L1003.79 180.12L1003.79 197.64L1001.63 197.64L1001.63 195.12L1001.61 195.12Q1001.44 196.42 1000.48 197.15Q999.52 197.88 998.03 197.88M998.75 196.01Q1000.10 196.01 1000.86 195.17Q1001.63 194.33 1001.63 192.84L1001.63 189.24Q1001.63 187.75 1000.86 186.91Q1000.10 186.07 998.75 186.07Q997.38 186.07 996.62 186.78Q995.85 187.49 995.85 189.12L995.85 192.96Q995.85 194.57 996.62 195.29Q997.38 196.01 998.75 196.01" fill="white" fill-opacity="0.7"/>
<path d="M1013.20 197.88Q1010.87 197.88 1009.44 196.48Q1008.02 195.07 1008.02 192.60L1008.02 189.48Q1008.02 187.01 1009.44 185.60Q1010.87 184.20 1013.20 184.20Q1014.76 184.20 1015.92 184.82Q1017.09 185.45 1017.74 186.58Q1018.38 187.70 1018.38 189.24L1018.38 191.59L1010.13 191.59L1010.13 192.84Q1010.13 194.30 1010.97 195.16Q1011.81 196.01 1013.20 196.01Q1014.40 196.01 1015.18 195.54Q1015.96 195.07 1016.13 194.28L1018.29 194.28Q1018.07 195.94 1016.68 196.91Q1015.29 197.88 1013.20 197.88M1010.13 189.24L1010.13 189.91L1016.27 189.91L1016.27 189.24Q1016.27 187.68 1015.47 186.83Q1014.66 185.98 1013.20 185.98Q1011.74 185.98 1010.93 186.83Q1010.13 187.68 1010.13 189.24" fill="white" fill-opacity="0.7"/>
<path d="M1029.02 197.64L1026.18 197.64L1021.70 184.44L1024.02 184.44L1026.90 193.32Q1027.17 194.11 1027.36 194.84Q1027.55 195.58 1027.65 195.98Q1027.77 195.58 1027.94 194.84Q1028.10 194.11 1028.34 193.32L1031.22 184.44L1033.50 184.44" fill="white" fill-opacity="0.7"/>
<path d="M1042 197.88Q1039.67 197.88 1038.24 196.48Q1036.82 195.07 1036.82 192.60L1036.82 189.48Q1036.82 187.01 1038.24 185.60Q1039.67 184.20 1042 184.20Q1043.56 184.20 1044.72 184.82Q1045.89 185.45 1046.54 186.58Q1047.18 187.70 1047.18 189.24L1047.18 191.59L1038.93 191.59L1038.93 192.84Q1038.93 194.30 1039.77 195.16Q1040.61 196.01 1042 196.01Q1043.20 196.01 1043.98 195.54Q1044.76 195.07 1044.93 194.28L1047.09 194.28Q1046.87 195.94 1045.48 196.91Q1044.09 197.88 1042 197.88M1038.93 189.24L1038.93 189.91L1045.07 189.91L1045.07 189.24Q1045.07 187.68 1044.27 186.83Q1043.46 185.98 1042 185.98Q1040.54 185.98 1039.73 186.83Q1038.93 187.68 1038.93 189.24" fill="white" fill-opacity="0.7"/>
<path d="M1062.40 197.64L1058.32 197.64Q1056.57 197.64 1055.52 196.62Q1054.48 195.60 1054.48 193.92L1054.48 182.09L1049.92 182.09L1049.92 180.12L1056.64 180.12L1056.64 193.92Q1056.64 194.74 1057.10 195.20Q1057.55 195.67 1058.32 195.67L1062.40 195.67" fill="white" fill-opacity="0.7"/>
<path d="M1070.80 197.83Q1068.42 197.83 1067.02 196.44Q1065.62 195.05 1065.62 192.55L1065.62 189.53Q1065.62 187.01 1067.01 185.63Q1068.40 184.25 1070.80 184.25Q1073.20 184.25 1074.59 185.63Q1075.98 187.01 1075.98 189.53L1075.98 192.55Q1075.98 195.05 1074.58 196.44Q1073.18 197.83 1070.80 197.83M1070.80 195.91Q1072.22 195.91 1073.02 195.12Q1073.82 194.33 1073.82 192.79L1073.82 189.29Q1073.82 187.75 1073.02 186.96Q1072.22 186.17 1070.80 186.17Q1069.41 186.17 1068.59 186.96Q1067.78 187.75 1067.78 189.29L1067.78 192.79Q1067.78 194.33 1068.59 195.12Q1069.41 195.91 1070.80 195.91" fill="white" fill-opacity="0.7"/>
<path d="M1082.37 201.96L1080.21 201.96L1080.21 184.44L1082.37 184.44L1082.37 186.96L1082.39 186.96Q1082.56 185.66 1083.52 184.93Q1084.48 184.20 1085.97 184.20Q1087.96 184.20 1089.14 185.51Q1090.31 186.82 1090.31 189.10L1090.31 192.96Q1090.31 195.24 1089.14 196.56Q1087.96 197.88 1085.97 197.88Q1084.48 197.88 1083.52 197.14Q1082.56 196.39 1082.39 195.12L1082.32 195.12L1082.37 198.12L1082.37 201.96M1085.25 196.01Q1086.62 196.01 1087.38 195.29Q1088.15 194.57 1088.15 192.96L1088.15 189.12Q1088.15 187.49 1087.38 186.78Q1086.62 186.07 1085.25 186.07Q1083.93 186.07 1083.15 186.91Q1082.37 187.75 1082.37 189.24L1082.37 192.84Q1082.37 194.33 1083.15 195.17Q1083.93 196.01 1085.25 196.01" fill="white" fill-opacity="0.7"/>
<path d="M1095.86 197.64L1093.84 197.64L1093.84 184.44L1095.71 184.44L1095.71 186.19L1095.76 186.19Q1095.88 185.30 1096.47 184.75Q1097.06 184.20 1097.97 184.20Q1098.83 184.20 1099.43 184.70Q1100.03 185.21 1100.30 186.07L1100.32 186.07Q1100.49 185.21 1101.08 184.70Q1101.66 184.20 1102.58 184.20Q1103.85 184.20 1104.60 185.15Q1105.36 186.10 1105.36 187.61L1105.36 197.64L1103.34 197.64L1103.34 187.58Q1103.34 186.79 1102.96 186.32Q1102.58 185.86 1101.90 185.86Q1101.26 185.86 1100.87 186.31Q1100.49 186.77 1100.49 187.56L1100.49 197.64L1098.71 197.64L1098.71 187.58Q1098.71 186.79 1098.33 186.32Q1097.94 185.86 1097.30 185.86Q1096.62 185.86 1096.24 186.31Q1095.86 186.77 1095.86 187.56" fill="white" fill-opacity="0.7"/>
<path d="M1114 197.88Q1111.67 197.88 1110.24 196.48Q1108.82 195.07 1108.82 192.60L1108.82 189.48Q1108.82 187.01 1110.24 185.60Q1111.67 184.20 1114 184.20Q1115.56 184.20 1116.72 184.82Q1117.89 185.45 1118.54 186.58Q1119.18 187.70 1119.18 189.24L1119.18 191.59L1110.93 191.59L1110.93 192.84Q1110.93 194.30 1111.77 195.16Q1112.61 196.01 1114 196.01Q1115.20 196.01 1115.98 195.54Q1116.76 195.07 1116.93 194.28L1119.09 194.28Q1118.87 195.94 1117.48 196.91Q1116.09 197.88 1114 197.88M1110.93 189.24L1110.93 189.91L1117.07 189.91L1117.07 189.24Q1117.07 187.68 1116.27 186.83Q1115.46 185.98 1114 185.98Q1112.54 185.98 1111.73 186.83Q1110.93 187.68 1110.93 189.24" fill="white" fill-opacity="0.7"/>
<path d="M1125.57 197.64L1123.41 197.64L1123.41 184.44L1125.57 184.44L1125.57 186.96L1125.59 186.96Q1125.76 185.64 1126.67 184.92Q1127.58 184.20 1129.10 184.20Q1131.09 184.20 1132.26 185.42Q1133.44 186.65 1133.44 188.76L1133.44 197.64L1131.28 197.64L1131.28 189.14Q1131.28 187.63 1130.52 186.83Q1129.77 186.02 1128.47 186.02Q1127.13 186.02 1126.35 186.86Q1125.57 187.70 1125.57 189.24" fill="white" fill-opacity="0.7"/>
<path d="M1147.96 197.64L1144.12 197.64Q1142.49 197.64 1141.50 196.69Q1140.52 195.74 1140.52 194.16L1140.52 186.41L1136.73 186.41L1136.73 184.44L1140.52 184.44L1140.52 180.72L1142.68 180.72L1142.68 184.44L1148.08 184.44L1148.08 186.41L1142.68 186.41L1142.68 194.16Q1142.68 194.83 1143.08 195.25Q1143.47 195.67 1144.12 195.67L1147.96 195.67" fill="white" fill-opacity="0.7"/>
<path d="M1157.27 201.48L1155.04 201.48L1156.36 194.14L1158.95 194.14" fill="white" fill-opacity="0.7"/>
<path d="M83.32 229.64L72.04 229.64L72.04 227.67L76.72 227.67L76.72 218.41L72.52 218.41L72.52 216.44L78.88 216.44L78.88 227.67L83.32 227.67L83.32 229.64M77.56 214.06Q76.77 214.06 76.31 213.66Q75.86 213.25 75.86 212.55Q75.86 211.83 76.31 211.41Q76.77 210.99 77.56 210.99Q78.35 210.99 78.81 211.41Q79.26 211.83 79.26 212.55Q79.26 213.25 78.81 213.66Q78.35 214.06 77.56 214.06" fill="white" fill-opacity="0.7"/>
<path d="M92.13 229.83L91.07 229.83Q88.86 229.83 87.65 228.84Q86.44 227.84 86.44 226.02L88.60 226.02Q88.60 226.93 89.25 227.44Q89.90 227.96 91.07 227.96L92.13 227.96Q93.33 227.96 93.99 227.43Q94.65 226.90 94.65 225.94Q94.65 224.24 93.09 224.02L89.44 223.50Q88.10 223.30 87.35 222.38Q86.61 221.46 86.61 219.94Q86.61 218.22 87.80 217.23Q88.98 216.25 91.07 216.25L92.13 216.25Q94.05 216.25 95.26 217.20Q96.47 218.14 96.57 219.68L94.38 219.68Q94.34 218.98 93.72 218.53Q93.11 218.07 92.13 218.07L91.07 218.07Q89.97 218.07 89.34 218.58Q88.72 219.08 88.72 219.94Q88.72 221.34 89.99 221.53L93.40 222.01Q96.76 222.49 96.76 225.94Q96.76 227.79 95.55 228.81Q94.34 229.83 92.13 229.83" fill="white" fill-opacity="0.7"/>
<path d="M106.53 229.83L105.47 229.83Q103.26 229.83 102.05 228.84Q100.84 227.84 100.84 226.02LNaN 226.02QNaN 226.93 103.65 227.44Q104.30 227.96 105.47 227.96L106.53 227.96Q107.73 227.96 108.39 227.43Q109.05 226.90 109.05 225.94Q109.05 224.24 107.49 224.02L103.84 223.50Q102.50 223.30 101.75 222.38Q101.01 221.46 101.01 219.94Q101.01 218.22 102.20 217.23Q103.38 216.25 105.47 216.25L106.53 216.25Q108.45 216.25 109.66 217.20Q110.87 218.14 110.97 219.68L108.78 219.68Q108.74 218.98 108.12 218.53Q107.51 218.07 106.53 218.07L105.47 218.07Q104.37 218.07 103.74 218.58Q103.12 219.08 103.12 219.94Q103.12 221.34 104.39 221.53L107.80 222.01Q111.16 222.49 111.16 225.94Q111.16 227.79 109.95 228.81Q108.74 229.83 106.53 229.83" fill="white" fill-opacity="0.7"/>
<path d="M120.38 229.88Q118.10 229.88 116.73 228.52Q115.36 227.17 115.36 224.84L115.36 216.44L117.52 216.44L117.52 224.84Q117.52 226.28 118.29 227.13Q119.06 227.98 120.38 227.98Q121.72 227.98 122.50 227.13Q123.28 226.28 123.28 224.84L123.28 216.44L125.44 216.44L125.44 224.84Q125.44 227.17 124.05 228.52Q122.66 229.88 120.38 229.88" fill="white" fill-opacity="0.7"/>
<path d="M140.92 229.64L129.64 229.64L129.64 227.67L134.32 227.67L134.32 218.41L130.12 218.41L130.12 216.44L136.48 216.44L136.48 227.67L140.92 227.67L140.92 229.64M135.16 214.06Q134.37 214.06 133.91 213.66Q133.46 213.25 133.46 212.55Q133.46 211.83 133.91 211.41Q134.37 210.99 135.16 210.99Q135.95 210.99 136.41 211.41Q136.86 211.83 136.86 212.55Q136.86 213.25 136.41 213.66Q135.95 214.06 135.16 214.06" fill="white" fill-opacity="0.7"/>
<path d="M146.37 229.64L144.21 229.64L144.21 216.44L146.37 216.44L146.37 218.96L146.39 218.96Q146.56 217.64 147.47 216.92Q148.38 216.20 149.90 216.20Q151.89 216.20 153.06 217.42Q154.24 218.65 154.24 220.76L154.24 229.64L152.08 229.64L152.08 221.14Q152.08 219.63 151.32 218.83Q150.57 218.02 149.27 218.02Q147.93 218.02 147.15 218.86Q146.37 219.70 146.37 221.24" fill="white" fill-opacity="0.7"/>
<path d="M163.96 233.96L160.26 233.96L160.26 231.99L163.98 231.99Q165.11 231.99 165.76 231.36Q166.41 230.72 166.41 229.64L166.41 228.44L166.46 226.28L166.38 226.28Q166.19 227.46 165.26 228.09Q164.32 228.73 162.90 228.73Q160.86 228.73 159.69 227.43Q158.51 226.14 158.51 223.88L158.51 221.10Q158.51 218.84 159.69 217.52Q160.86 216.20 162.90 216.20Q164.32 216.20 165.26 216.87Q166.19 217.54 166.38 218.72L166.43 218.72L166.43 216.44L168.57 216.44L168.57 229.64Q168.57 231.63 167.33 232.80Q166.10 233.96 163.96 233.96M163.55 226.93Q164.90 226.93 165.66 226.09Q166.43 225.25 166.43 223.76L166.43 221.24Q166.43 219.75 165.66 218.91Q164.90 218.07 163.55 218.07Q162.18 218.07 161.43 218.86Q160.67 219.66 160.67 221L160.67 224Q160.67 225.34 161.43 226.14Q162.18 226.93 163.55 226.93" fill="white" fill-opacity="0.7"/>
<path d="M189.57 233.96L187.41 233.96L187.41 216.44L189.57 216.44L189.57 218.96L189.59 218.96Q189.76 217.66 190.72 216.93Q191.68 216.20 193.17 216.20Q195.16 216.20 196.34 217.51Q197.51 218.82 197.51 221.10L197.51 224.96Q197.51 227.24 196.34 228.56Q195.16 229.88 193.17 229.88Q191.68 229.88 190.72 229.14Q189.76 228.39 189.59 227.12L189.52 227.12L189.57 230.12L189.57 233.96M192.45 228.01Q193.82 228.01 194.58 227.29Q195.35 226.57 195.35 224.96L195.35 221.12Q195.35 219.49 194.58 218.78Q193.82 218.07 192.45 218.07Q191.13 218.07 190.35 218.91Q189.57 219.75 189.57 221.24L189.57 224.84Q189.57 226.33 190.35 227.17Q191.13 228.01 192.45 228.01" fill="white" fill-opacity="0.7"/>
<path d="M204.45 229.64L202.29 229.64L202.29 216.44L204.45 216.44L204.45 218.96L204.50 218.96Q204.66 217.69 205.58 216.94Q206.49 216.20 208.02 216.20Q210.09 216.20 211.20 217.44Q212.32 218.67 212.32 220.95L212.32 222.08L210.16 222.08L210.16 220.95Q210.16 218.07 207.35 218.07Q205.94 218.07 205.19 218.89Q204.45 219.70 204.45 221.24" fill="white" fill-opacity="0.7"/>
<path d="M221.20 229.83Q218.82 229.83 217.42 228.44Q216.02 227.05 216.02 224.55L216.02 221.53Q216.02 219.01 217.41 217.63Q218.80 216.25 221.20 216.25Q223.60 216.25 224.99 217.63Q226.38 219.01 226.38 221.53L226.38 224.55Q226.38 227.05 224.98 228.44Q223.58 229.83 221.20 229.83M221.20 227.91Q222.62 227.91 223.42 227.12Q224.22 226.33 224.22 224.79L224.22 221.29Q224.22 219.75 223.42 218.96Q222.62 218.17 221.20 218.17Q219.81 218.17 218.99 218.96Q218.18 219.75 218.18 221.29L218.18 224.79Q218.18 226.33 218.99 227.12Q219.81 227.91 221.20 227.91" fill="white" fill-opacity="0.7"/>
<path d="M235.96 233.96L232.26 233.96L232.26 231.99L235.98 231.99Q237.11 231.99 237.76 231.36Q238.41 230.72 238.41 229.64L238.41 228.44L238.46 226.28L238.38 226.28Q238.19 227.46 237.26 228.09Q236.32 228.73 234.90 228.73Q232.86 228.73 231.69 227.43Q230.51 226.14 230.51 223.88L230.51 221.10Q230.51 218.84 231.69 217.52Q232.86 216.20 234.90 216.20Q236.32 216.20 237.26 216.87Q238.19 217.54 238.38 218.72L238.43 218.72L238.43 216.44L240.57 216.44L240.57 229.64Q240.57 231.63 239.33 232.80Q238.10 233.96 235.96 233.96M235.55 226.93Q236.90 226.93 237.66 226.09Q238.43 225.25 238.43 223.76L238.43 221.24Q238.43 219.75 237.66 218.91Q236.90 218.07 235.55 218.07Q234.18 218.07 233.43 218.86Q232.67 219.66 232.67 221L232.67 224Q232.67 225.34 233.43 226.14Q234.18 226.93 235.55 226.93" fill="white" fill-opacity="0.7"/>
<path d="M247.65 229.64L245.49 229.64L245.49 216.44L247.65 216.44L247.65 218.96L247.70 218.96Q247.86 217.69 248.78 216.94Q249.69 216.20 251.22 216.20Q253.29 216.20 254.40 217.44Q255.52 218.67 255.52 220.95L255.52 222.08L253.36 222.08L253.36 220.95Q253.36 218.07 250.55 218.07Q249.14 218.07 248.39 218.89Q247.65 219.70 247.65 221.24" fill="white" fill-opacity="0.7"/>
<path d="M263.25 229.88Q261.21 229.88 260.01 228.74Q258.81 227.60 258.81 225.75Q258.81 224.53 259.36 223.62Q259.91 222.70 260.90 222.19Q261.88 221.67 263.15 221.67L267.23 221.67L267.23 220.64Q267.23 218.07 264.42 218.07Q263.18 218.07 262.41 218.53Q261.64 218.98 261.59 219.80L259.43 219.80Q259.55 218.24 260.88 217.22Q262.22 216.20 264.42 216.20Q266.82 216.20 268.11 217.35Q269.39 218.50 269.39 220.57L269.39 229.64L267.26 229.64L267.26 227.24L267.21 227.24Q267.02 228.46 265.98 229.17Q264.95 229.88 263.25 229.88M263.78 228.06Q265.36 228.06 266.30 227.29Q267.23 226.52 267.23 225.20L267.23 223.35L263.39 223.35Q262.34 223.35 261.68 223.99Q261.02 224.62 261.02 225.68Q261.02 226.78 261.75 227.42Q262.48 228.06 263.78 228.06" fill="white" fill-opacity="0.7"/>
<path d="M275.06 229.64L273.04 229.64L273.04 216.44L274.91 216.44L274.91 218.19L274.96 218.19Q275.08 217.30 275.67 216.75Q276.26 216.20 277.17 216.20Q278.03 216.20 278.63 216.70Q279.23 217.21 279.50 218.07L279.52 218.07Q279.69 217.21 280.28 216.70Q280.86 216.20 281.78 216.20Q283.05 216.20 283.80 217.15Q284.56 218.10 284.56 219.61L284.56 229.64L282.54 229.64L282.54 219.58Q282.54 218.79 282.16 218.32Q281.78 217.86 281.10 217.86Q280.46 217.86 280.07 218.31Q279.69 218.77 279.69 219.56L279.69 229.64L277.91 229.64L277.91 219.58Q277.91 218.79 277.53 218.32Q277.14 217.86 276.50 217.86Q275.82 217.86 275.44 218.31Q275.06 218.77 275.06 219.56" fill="white" fill-opacity="0.7"/>
<path d="M307.79 229.88Q305.39 229.88 303.95 228.54Q302.51 227.19 302.51 224.84L302.51 221.24Q302.51 218.89 303.95 217.54Q305.39 216.20 307.79 216.20Q310.07 216.20 311.48 217.42Q312.88 218.65 312.95 220.76L310.79 220.76Q310.72 219.49 309.93 218.80Q309.14 218.12 307.79 218.12Q306.38 218.12 305.52 218.92Q304.67 219.73 304.67 221.22L304.67 224.84Q304.67 226.33 305.52 227.14Q306.38 227.96 307.79 227.96Q309.14 227.96 309.93 227.26Q310.72 226.57 310.79 225.32L312.95 225.32Q312.88 227.43 311.48 228.66Q310.07 229.88 307.79 229.88" fill="white" fill-opacity="0.7"/>
<path d="M322 229.88Q319.67 229.88 318.24 228.48Q316.82 227.07 316.82 224.60L316.82 221.48Q316.82 219.01 318.24 217.60Q319.67 216.20 322 216.20Q323.56 216.20 324.72 216.82Q325.89 217.45 326.54 218.58Q327.18 219.70 327.18 221.24L327.18 223.59L318.93 223.59L318.93 224.84Q318.93 226.30 319.77 227.16Q320.61 228.01 322 228.01Q323.20 228.01 323.98 227.54Q324.76 227.07 324.93 226.28L327.09 226.28Q326.87 227.94 325.48 228.91Q324.09 229.88 322 229.88M318.93 221.24L318.93 221.91L325.07 221.91L325.07 221.24Q325.07 219.68 324.27 218.83Q323.46 217.98 322 217.98Q320.54 217.98 319.73 218.83Q318.93 219.68 318.93 221.24" fill="white" fill-opacity="0.7"/>
<path d="M334.05 229.64L331.89 229.64L331.89 216.44L334.05 216.44L334.05 218.96L334.10 218.96Q334.26 217.69 335.18 216.94Q336.09 216.20 337.62 216.20Q339.69 216.20 340.80 217.44Q341.92 218.67 341.92 220.95L341.92 222.08L339.76 222.08L339.76 220.95Q339.76 218.07 336.95 218.07Q335.54 218.07 334.79 218.89Q334.05 219.70 334.05 221.24" fill="white" fill-opacity="0.7"/>
<path d="M355.96 229.64L352.12 229.64Q350.49 229.64 349.50 228.69Q348.52 227.74 348.52 226.16L348.52 218.41L344.73 218.41L344.73 216.44L348.52 216.44L348.52 212.72L350.68 212.72L350.68 216.44L356.08 216.44L356.08 218.41L350.68 218.41L350.68 226.16Q350.68 226.83 351.08 227.25Q351.47 227.67 352.12 227.67L355.96 227.67" fill="white" fill-opacity="0.7"/>
<path d="M371.32 229.64L360.04 229.64L360.04 227.67L364.72 227.67L364.72 218.41L360.52 218.41L360.52 216.44L366.88 216.44L366.88 227.67L371.32 227.67L371.32 229.64M365.56 214.06Q364.77 214.06 364.31 213.66Q363.86 213.25 363.86 212.55Q363.86 211.83 364.31 211.41Q364.77 210.99 365.56 210.99Q366.35 210.99 366.81 211.41Q367.26 211.83 367.26 212.55Q367.26 213.25 366.81 213.66Q366.35 214.06 365.56 214.06" fill="white" fill-opacity="0.7"/>
<path d="M379.72 229.64L377.56 229.64L377.56 220.21L373.72 220.21L373.72 218.24L377.56 218.24L377.56 215.48Q377.56 213.92 378.54 213.02Q379.53 212.12 381.26 212.12L385.12 212.12L385.12 214.09L381.26 214.09Q379.72 214.09 379.72 215.48L379.72 218.24L385.12 218.24L385.12 220.21L379.72 220.21" fill="white" fill-opacity="0.7"/>
<path d="M400.12 229.64L388.84 229.64L388.84 227.67L393.52 227.67L393.52 218.41L389.32 218.41L389.32 216.44L395.68 216.44L395.68 227.67L400.12 227.67L400.12 229.64M394.36 214.06Q393.57 214.06 393.11 213.66Q392.66 213.25 392.66 212.55Q392.66 211.83 393.11 211.41Q393.57 210.99 394.36 210.99Q395.15 210.99 395.61 211.41Q396.06 211.83 396.06 212.55Q396.06 213.25 395.61 213.66Q395.15 214.06 394.36 214.06" fill="white" fill-opacity="0.7"/>
<path d="M408.59 229.88Q406.19 229.88 404.75 228.54Q403.31 227.19 403.31 224.84L403.31 221.24Q403.31 218.89 404.75 217.54Q406.19 216.20 408.59 216.20Q410.87 216.20 412.28 217.42Q413.68 218.65 413.75 220.76L411.59 220.76Q411.52 219.49 410.73 218.80Q409.94 218.12 408.59 218.12Q407.18 218.12 406.32 218.92Q405.47 219.73 405.47 221.22L405.47 224.84Q405.47 226.33 406.32 227.14Q407.18 227.96 408.59 227.96Q409.94 227.96 410.73 227.26Q411.52 226.57 411.59 225.32L413.75 225.32Q413.68 227.43 412.28 228.66Q410.87 229.88 408.59 229.88" fill="white" fill-opacity="0.7"/>
<path d="M421.65 229.88Q419.61 229.88 418.41 228.74Q417.21 227.60 417.21 225.75Q417.21 224.53 417.76 223.62Q418.31 222.70 419.30 222.19Q420.28 221.67 421.55 221.67L425.63 221.67L425.63 220.64Q425.63 218.07 422.82 218.07Q421.58 218.07 420.81 218.53Q420.04 218.98 419.99 219.80L417.83 219.80Q417.95 218.24 419.28 217.22Q420.62 216.20 422.82 216.20Q425.22 216.20 426.51 217.35Q427.79 218.50 427.79 220.57L427.79 229.64L425.66 229.64L425.66 227.24L425.61 227.24Q425.42 228.46 424.38 229.17Q423.35 229.88 421.65 229.88M422.18 228.06Q423.76 228.06 424.70 227.29Q425.63 226.52 425.63 225.20L425.63 223.35L421.79 223.35Q420.74 223.35 420.08 223.99Q419.42 224.62 419.42 225.68Q419.42 226.78 420.15 227.42Q420.88 228.06 422.18 228.06" fill="white" fill-opacity="0.7"/>
<path d="M442.36 229.64L438.52 229.64Q436.89 229.64 435.90 228.69Q434.92 227.74 434.92 226.16L434.92 218.41L431.13 218.41L431.13 216.44L434.92 216.44L434.92 212.72L437.08 212.72L437.08 216.44L442.48 216.44L442.48 218.41L437.08 218.41L437.08 226.16Q437.08 226.83 437.48 227.25Q437.87 227.67 438.52 227.67L442.36 227.67" fill="white" fill-opacity="0.7"/>
<path d="M451.60 229.88Q449.27 229.88 447.84 228.48Q446.42 227.07 446.42 224.60L446.42 221.48Q446.42 219.01 447.84 217.60Q449.27 216.20 451.60 216.20Q453.16 216.20 454.32 216.82Q455.49 217.45 456.14 218.58Q456.78 219.70 456.78 221.24L456.78 223.59L448.53 223.59L448.53 224.84Q448.53 226.30 449.37 227.16Q450.21 228.01 451.60 228.01Q452.80 228.01 453.58 227.54Q454.36 227.07 454.53 226.28L456.69 226.28Q456.47 227.94 455.08 228.91Q453.69 229.88 451.60 229.88M448.53 221.24L448.53 221.91L454.67 221.91L454.67 221.24Q454.67 219.68 453.87 218.83Q453.06 217.98 451.60 217.98Q450.14 217.98 449.33 218.83Q448.53 219.68 448.53 221.24" fill="white" fill-opacity="0.7"/>
<path d="M466.53 229.83L465.47 229.83Q463.26 229.83 462.05 228.84Q460.84 227.84 460.84 226.02L463 226.02Q463 226.93 463.65 227.44Q464.30 227.96 465.47 227.96L466.53 227.96Q467.73 227.96 468.39 227.43Q469.05 226.90 469.05 225.94Q469.05 224.24 467.49 224.02L463.84 223.50Q462.50 223.30 461.75 222.38Q461.01 221.46 461.01 219.94Q461.01 218.22 462.20 217.23Q463.38 216.25 465.47 216.25L466.53 216.25Q468.45 216.25 469.66 217.20Q470.87 218.14 470.97 219.68L468.78 219.68Q468.74 218.98 468.12 218.53Q467.51 218.07 466.53 218.07L465.47 218.07Q464.37 218.07 463.74 218.58Q463.12 219.08 463.12 219.94Q463.12 221.34 464.39 221.53L467.80 222.01Q471.16 222.49 471.16 225.94Q471.16 227.79 469.95 228.81Q468.74 229.83 466.53 229.83" fill="white" fill-opacity="0.7"/>
<path d="M480.40 229.88Q479.51 229.88 478.97 229.35Q478.43 228.82 478.43 227.98Q478.43 227.10 478.97 226.54Q479.51 225.99 480.40 225.99Q481.29 225.99 481.83 226.54Q482.37 227.10 482.37 227.98Q482.37 228.82 481.83 229.35Q481.29 229.88 480.40 229.88" fill="white" fill-opacity="0.7"/>
<path d="M76.11 136.06L66.42 136.06L84.56 65.98L97.14 65.98L115.18 136.06L105.49 136.06L101.07 117.82L80.53 117.82L76.11 136.06M87.54 88.92L82.45 109.95L99.15 109.95L94.16 89.02Q92.72 83.26 91.86 79.23Q90.99 75.20 90.80 73.76Q90.61 75.20 89.74 79.23Q88.88 83.26 87.54 88.92M137.55 136.06L128.05 136.06L128.05 65.98L150.80 65.98Q157.52 65.98 162.42 68.57Q167.31 71.16 170 75.82Q172.69 80.48 172.69 86.91Q172.69 93.24 170 97.90Q167.31 102.56 162.37 105.15Q157.42 107.74 150.80 107.74L137.55 107.74L137.55 136.06M137.55 74.43L137.55 99.29L150.80 99.29Q156.37 99.29 159.63 95.88Q162.90 92.48 162.90 86.91Q162.90 81.24 159.63 77.84Q156.37 74.43 150.80 74.43L137.55 74.43M225.10 136.06L186.90 136.06L186.90 127.42L201.20 127.42L201.20 74.62L186.90 74.62L186.90 65.98L225.10 65.98L225.10 74.62L210.80 74.62L210.80 127.42L225.10 127.42L225.10 136.06M263.98 137.02Q253.62 137.02 247.47 131.60Q241.33 126.17 241.33 116.67L250.83 116.67Q250.83 122.24 254.38 125.40Q257.94 128.57 263.98 128.57Q269.74 128.57 273.15 125.36Q276.56 122.14 276.56 116.76Q276.56 112.73 274.35 109.71Q272.14 106.68 268.11 105.63L257.74 102.84Q250.93 100.92 246.94 95.88Q242.96 90.84 242.96 83.93Q242.96 78.27 245.50 74Q248.05 69.72 252.66 67.37Q257.26 65.02 263.31 65.02Q269.46 65.02 274.11 67.37Q278.77 69.72 281.36 73.95Q283.95 78.17 283.95 83.74L274.54 83.74Q274.54 79.13 271.42 76.25Q268.30 73.37 263.31 73.37Q258.32 73.37 255.30 76.25Q252.27 79.13 252.27 83.74Q252.27 87.48 254.29 90.03Q256.30 92.57 259.95 93.63L270.61 96.51Q277.81 98.43 281.84 103.85Q285.87 109.28 285.87 116.76Q285.87 122.91 283.18 127.47Q280.50 132.03 275.55 134.52Q270.61 137.02 263.98 137.02M342.51 136.06L301.71 136.06L301.71 65.98L342.51 65.98L342.51 74.52L311.12 74.52L311.12 95.36L339.15 95.36L339.15 103.61L311.12 103.61L311.12 127.52L342.51 127.52L342.51 136.06M383.60 136.06L374.10 136.06L374.10 74.62L355.09 74.62L355.09 65.98L402.51 65.98L402.51 74.62L383.60 74.62L383.60 136.06M436.40 137.02Q426.51 137.02 421.18 131.55Q415.86 126.08 415.86 116.67L415.86 65.98L425.36 65.98L425.36 116.67Q425.36 122.24 428.10 125.40Q430.83 128.57 436.40 128.57Q441.87 128.57 444.70 125.40Q447.54 122.24 447.54 116.67L447.54 65.98L457.04 65.98L457.04 116.67Q457.04 126.17 451.71 131.60Q446.38 137.02 436.40 137.02M551.98 137.02Q542.29 137.02 536.58 131.60Q530.86 126.17 530.86 116.67L530.86 85.28Q530.86 75.87 536.58 70.44Q542.29 65.02 551.98 65.02Q561.58 65.02 567.30 70.49Q573.01 75.96 573.01 85.28L563.50 85.28Q563.50 79.61 560.43 76.54Q557.36 73.47 551.98 73.47Q546.51 73.47 543.44 76.54Q540.37 79.61 540.37 85.28L540.37 116.67Q540.37 122.43 543.44 125.50Q546.51 128.57 551.98 128.57Q557.36 128.57 560.43 125.50Q563.50 122.43 563.50 116.67L563.50 107.55L549.87 107.55L549.87 99.10L573.01 99.10L573.01 116.67Q573.01 126.08 567.30 131.55Q561.58 137.02 551.98 137.02M609.20 137.02Q599.60 137.02 594.03 131.45Q588.46 125.88 588.46 115.71L588.46 86.24Q588.46 76.16 594.03 70.59Q599.60 65.02 609.20 65.02Q618.80 65.02 624.37 70.54Q629.94 76.06 629.94 86.24L629.94 115.71Q629.94 125.88 624.37 131.45Q618.80 137.02 609.20 137.02M609.20 128.57Q614.58 128.57 617.50 125.50Q620.43 122.43 620.43 116.67L620.43 85.28Q620.43 79.61 617.55 76.54Q614.67 73.47 609.20 73.47Q603.73 73.47 600.85 76.54Q597.97 79.61 597.97 85.28L597.97 116.67Q597.97 122.43 600.90 125.50Q603.82 128.57 609.20 128.57M673.14 136.06L660.37 136.06L642.42 65.98L652.21 65.98L663.82 113.21Q664.98 117.72 665.79 121.90Q666.61 126.08 666.99 128.28Q667.28 126.08 668.19 121.85Q669.10 117.63 670.16 113.12L681.39 65.98L691.18 65.98L673.14 136.06M770.38 136.06L761.46 136.06L761.46 65.98L773.74 65.98L794.67 125.12Q794.38 122.62 794.14 118.92Q793.90 115.23 793.76 111.24Q793.62 107.26 793.62 103.71L793.62 65.98L802.64 65.98L802.64 136.06L790.26 136.06L769.52 76.92Q769.71 79.42 769.90 83.02Q770.10 86.62 770.24 90.56Q770.38 94.49 770.38 97.95L770.38 136.06M839.98 137.02Q829.62 137.02 823.47 131.60Q817.33 126.17 817.33 116.67L826.83 116.67Q826.83 122.24 830.38 125.40Q833.94 128.57 839.98 128.57Q845.74 128.57 849.15 125.36Q852.56 122.14 852.56 116.76Q852.56 112.73 850.35 109.71Q848.14 106.68 844.11 105.63L833.74 102.84Q826.93 100.92 822.94 95.88Q818.96 90.84 818.96 83.93Q818.96 78.27 821.50 74Q824.05 69.72 828.66 67.37Q833.26 65.02 839.31 65.02Q845.46 65.02 850.11 67.37Q854.77 69.72 857.36 73.95Q859.95 78.17 859.95 83.74L850.54 83.74Q850.54 79.13 847.42 76.25Q844.30 73.37 839.31 73.37Q834.32 73.37 831.30 76.25Q828.27 79.13 828.27 83.74Q828.27 87.48 830.29 90.03Q832.30 92.57 835.95 93.63L846.61 96.51Q853.81 98.43 857.84 103.85Q861.87 109.28 861.87 116.76Q861.87 122.91 859.18 127.47Q856.50 132.03 851.55 134.52Q846.61 137.02 839.98 137.02M895.66 136.06L876.85 136.06L876.85 65.98L895.66 65.98Q902.48 65.98 907.52 68.62Q912.56 71.26 915.34 76.01Q918.13 80.76 918.13 87.20L918.13 114.75Q918.13 121.18 915.34 125.98Q912.56 130.78 907.52 133.42Q902.48 136.06 895.66 136.06M886.35 74.43L886.35 127.61L895.66 127.61Q901.71 127.61 905.17 124.16Q908.62 120.70 908.62 114.75L908.62 87.20Q908.62 81.24 905.17 77.84Q901.71 74.43 895.66 74.43L886.35 74.43M955.57 137.02Q945.87 137.02 940.16 131.60Q934.45 126.17 934.45 116.67L934.45 85.28Q934.45 75.87 940.16 70.44Q945.87 65.02 955.57 65.02Q965.17 65.02 970.88 70.49Q976.59 75.96 976.59 85.28L967.09 85.28Q967.09 79.61 964.02 76.54Q960.94 73.47 955.57 73.47Q950.10 73.47 947.02 76.54Q943.95 79.61 943.95 85.28L943.95 116.67Q943.95 122.43 947.02 125.50Q950.10 128.57 955.57 128.57Q960.94 128.57 964.02 125.50Q967.09 122.43 967.09 116.67L976.59 116.67Q976.59 126.08 970.88 131.55Q965.17 137.02 955.57 137.02M1031.50 136.06L993.30 136.06L993.30 127.42L1007.60 127.42L1007.60 74.62L993.30 74.62L993.30 65.98L1031.50 65.98L1031.50 74.62L1017.20 74.62L1017.20 127.42L1031.50 127.42L1031.50 136.06M1058.38 136.06L1049.46 136.06L1049.46 65.98L1061.74 65.98L1082.67 125.12Q1082.38 122.62 1082.14 118.92Q1081.90 115.23 1081.76 111.24Q1081.62 107.26 1081.62 103.71L1081.62 65.98L1090.64 65.98L1090.64 136.06L1078.26 136.06L1057.52 76.92Q1057.71 79.42 1057.90 83.02Q1058.10 86.62 1058.24 90.56Q1058.38 94.49 1058.38 97.95L1058.38 136.06M1126.06 136.06L1107.25 136.06L1107.25 65.98L1126.06 65.98Q1132.88 65.98 1137.92 68.62Q1142.96 71.26 1145.74 76.01Q1148.53 80.76 1148.53 87.20L1148.53 114.75Q1148.53 121.18 1145.74 125.98Q1142.96 130.78 1137.92 133.42Q1132.88 136.06 1126.06 136.06M1116.75 74.43L1116.75 127.61L1126.06 127.61Q1132.11 127.61 1135.57 124.16Q1139.02 120.70 1139.02 114.75L1139.02 87.20Q1139.02 81.24 1135.57 77.84Q1132.11 74.43 1126.06 74.43L1116.75 74.43M1204.30 136.06L1166.10 136.06L1166.10 127.42L1180.40 127.42L1180.40 74.62L1166.10 74.62L1166.10 65.98L1204.30 65.98L1204.30 74.62L1190 74.62L1190 127.42L1204.30 127.42L1204.30 136.06M1228.11 136.06L1218.42 136.06L1236.56 65.98L1249.14 65.98L1267.18 136.06L1257.49 136.06L1253.07 117.82L1232.53 117.82L1228.11 136.06M1239.54 88.92L1234.45 109.95L1251.15 109.95L1246.16 89.02Q1244.72 83.26 1243.86 79.23Q1242.99 75.20 1242.80 73.76Q1242.61 75.20 1241.74 79.23Q1240.88 83.26 1239.54 88.92" fill="url(#paint2_linear_0_1)"/>
<g id="Group 1">
<rect id="Rectangle 1" x="26" y="168" width="12" height="184" rx="5" fill="url(#paint3_linear_0_1)" fill-opacity="0.9"/>
</g>
<g id="Group 1_2">
<rect id="Rectangle 2" x="26" y="38" width="12" height="119" rx="5" fill="url(#paint4_linear_0_1)" fill-opacity="0.9"/>
</g>
<ellipse id="Ellipse 1" cx="148.5" cy="573" rx="215.5" ry="214" fill="url(#paint5_linear_0_1)" fill-opacity="0.4"/>
<rect id="Rectangle 3" x="1229" y="48" width="300" height="300" rx="25" fill="#FFFBFB" fill-opacity="0.9"/>
<g id="placeholder-logo"><g transform="translate(1229,48) translate(0.0,60.0) scale(1.2000)"><g fill="#666666">
  <path d="m88.05,27.65c-3.15,4 -3.2,51.2 -0.05,54.35c2.75,2.75 71.7,3.15 74.45,0.45c2.85,-2.9 2.3,-53.85 -0.65,-55.9c-1.95,-1.35 -7.15,-1.55 -36.95,-1.55l-34.7,0l-2.1,2.65zm69.45,3.35c0.65,0 1,8.6 1,23.75l0,23.75l-33,0l-33,0l-0.25,-23c-0.15,-12.6 -0.1,-23.45 0.15,-24.1c0.35,-0.85 8.9,-1.05 32.25,-0.75c17.55,0.2 32.3,0.35 32.85,0.35z"/>
  <path d="m99.15,37.3c-6.85,7.35 4.25,17.35 11.4,10.25c1.35,-1.35 2.45,-3.65 2.45,-5.05c0,-6.45 -9.35,-9.95 -13.85,-5.2z"/>
  <path d="m135,42.5c-0.7,0.85 -5.25,5.15 -10.1,9.6l-8.85,8.1l-3.2,-3.2l-3.15,-3.15l-6.35,6.3c-5.55,5.5 -6.35,6.75 -6.35,10.05l0,3.8l28.5,0l28.5,0l0,-8.6l0,-8.55l-8.15,-7.7c-9.35,-8.85 -9.15,-8.7 -10.85,-6.65zm7.25,15.2c0.95,0.9 1.75,2.9 1.75,4.45c6.35,-5.05 4.75,-7.15 4.9,-11.55c0.95,0 0,0 0,0l-6.65,7.1z"/>
  <path d="m53.65,110.75c0.1,4.8 0.45,8.65 0.75,8.5c0.35,-0.15 1.3,-0.25 2.1,-0.25c1.1,0 1.5,-1.2 1.5,-4.75l0,-4.75l3.25,5c4.9,7.5 6.2,6.75 6.55,-3.75c0.25,-8.15 0.15,-8.75 -1.7,-8.75c-1.65,0 -2.05,0.8 -2.3,4.75l-0.3,4.75l-2.8,-4.75c-4.85,-8.25 -7.25,-6.9 -7.05,4z"/>
  <path d="m91,108.9c0,9.65 0.3,10.1 6.1,10.1c5.8,0 7.15,-2.65 1.65,-3.2l-3.25,-0.3l-0.3,-6.75c-0.25,-5.95 -0.55,-6.75 -2.25,-6.75c-1.75,0 -1.95,0.7 -1.95,6.9z"/>
  <path d="m151,102.45c0,0.25 1,2.15 2.25,4.2c1.2,2.1 2.45,5.8 2.75,8.25c0.65,5.9 4,6.95 4,1.25c0.05,-2.1 1.25,-5.85 2.95,-8.9l2.9,-5.25l-2.5,0c-1.8,0 -2.8,0.85 -3.75,3.1l-1.3,3.05l-1.25,-3.05c-1.1,-2.6 -6.05,-4.8 -6.05,-2.65z"/>
  <path d="m191,107.45c0,9.05 3.4,8.85 4.25,-0.2c0.45,-5 0.35,-5.25 -1.9,-5.25c-2.2,0 -2.35,0.4 -2.35,5.45z"/>
  <path d="m180.8,104.75c-1.3,5.35 0.65,13.6 3.45,14.35c2.3,0.6 2.75,0.4 2.75,-1.2c0,-1.05 -0.45,-1.9 -1,-1.9c-0.55,0 -1,-1.6 -1,-3.5c0,-1.95 0.45,-3.5 1,-3.5c0.55,0 1,-0.7 1,-1.5c0,-0.85 -0.45,-1.5 -1,-1.5c-0.55,0 -1,-0.7 -1,-1.5c0,-2.1 -3.65,-1.9 -4.2,0.25z"/>
  <path d="m71.55,106.55c-2.2,2.25 -2.05,9.7 0.3,11.8c4.5,4.1 10.15,0.75 10.15,-6.1c0,-4.85 -2,-7.25 -6,-7.25c-1.55,0 -3.55,0.7 -4.45,1.55zm6.25,5.8c0.25,3.05 0,3.65 -1.6,3.65c-2.3,0 -3.25,-2.65 -2.05,-5.85c1.25,-3.35 3.3,-2.1 3.65,2.2z"/>
  <path d="m105.75,106.1c-2.5,1.45 -2.45,9.95 0.1,12.25c4.3,3.9 10.15,0.35 10.15,-6.2c0,-6 -5.15,-9.05 -10.25,-6.05zm6.05,6.25c0.25,3.05 0,3.65 -1.6,3.65c-2.3,0 -3.25,-2.65 -2.05,-5.85c1.25,-3.35 3.3,-2.1 3.65,2.2z"/>
  <path d="m119.2,106.2c-3.8,3.8 -0.4,12.55 4.4,11.35c1.9,-0.45 2.45,-0.3 2.15,0.65c-0.25,0.7 -1.55,1.2 -2.85,1.1c-4.05,-0.3 -5.35,0.45 -3.85,2.25c0.85,1.05 2.6,1.45 5.35,1.25l4.1,-0.3l0.3,-8.75l0.3,-8.75l-4.35,0c-2.4,0 -4.9,0.55 -5.55,1.2zm6.6,4.45c0.4,2.85 -2.15,4.85 -3.75,2.95c-0.9,-1.1 -0.9,-2 -0.05,-3.6c1.35,-2.5 3.4,-2.15 3.8,0.65z"/>
  <path d="m133.55,106.55c-2.2,2.25 -2.05,9.7 0.3,11.8c4.5,4.1 10.15,0.75 10.15,-6.1c0,-4.85 -2,-7.25 -6,-7.25c-1.55,0 -3.55,0.7 -4.45,1.55zm6.25,5.8c0.25,3.05 0,3.65 -1.6,3.65c-2.3,0 -3.25,-2.65 -2.05,-5.85c1.25,-3.35 3.3,-2.1 3.65,2.2z"/>
  <path d="m167.65,106.85c-3.9,4.3 -0.75,13.15 4.7,13.15c2.4,0 5.65,-2.75 5.65,-4.85c0,-1.4 -2.65,-1.55 -3.5,-0.15c-0.95,1.55 -4.5,1.15 -4.5,-0.5c0,-1.1 1.1,-1.5 4,-1.5c3.15,0 4,-0.35 4,-1.8c0,-5.3 -6.85,-8.25 -10.35,-4.35z"/>
  <path d="m191,117.5c0,2.15 0.4,2.6 2.25,2.3c1.5,-0.2 2.25,-1 2.25,-2.3c0,-1.3 -0.75,-2.1 -2.25,-2.3c-1.85,-0.3 -2.25,0.15 -2.25,2.3z"/>
 </g></g></g>
</g>
<defs>
<linearGradient id="paint0_linear_0_1" x1="0" y1="198" x2="1584" y2="198" gradientUnits="userSpaceOnUse">
<stop stop-color="#3D052C"/>
<stop offset="1"/>
</linearGradient>
<linearGradient id="paint1_linear_0_1" x1="323" y1="-224" x2="323" y2="352" gradientUnits="userSpaceOnUse">
<stop stop-color="#28F6F2" stop-opacity="0.4"/>
<stop offset="1" stop-color="#17908E" stop-opacity="0.7"/>
</linearGradient>
<linearGradient id="paint2_linear_0_1" x1="148.5" y1="38" x2="148.5" y2="140" gradientUnits="userSpaceOnUse">
<stop stop-color="white"/>
<stop offset="1" stop-color="#999999"/>
</linearGradient>
<linearGradient id="paint3_linear_0_1" x1="38" y1="260" x2="26" y2="260" gradientUnits="userSpaceOnUse">
<stop stop-color="#D9D9D9"/>
<stop offset="1" stop-color="#737373"/>
</linearGradient>
<linearGradient id="paint4_linear_0_1" x1="38" y1="97.5" x2="26" y2="97.5" gradientUnits="userSpaceOnUse">
<stop stop-color="#D9D9D9"/>
<stop offset="1" stop-color="#737373"/>
</linearGradient>
<linearGradient id="paint5_linear_0_1" x1="27.5" y1="434.5" x2="148.5" y2="787" gradientUnits="userSpaceOnUse">
<stop stop-color="#2E21BC"/>
<stop offset="1" stop-color="#150F56"/>
</linearGradient>
<clipPath id="clip0_0_1">
<rect width="1584" height="396" fill="white"/>
</clipPath>
</defs>
</svg>
